<?xml version="1.0" encoding="UTF-8"?>
<svg width="50px" height="50px" viewBox="0 0 50 50" version="1.1" xmlns="http://www.w3.org/2000/svg" xmlns:xlink="http://www.w3.org/1999/xlink">
    <title>Tutorial Icons/Manage Keys</title>
    <g id="Tutorial-Icons/Manage-Keys" stroke="none" stroke-width="1" fill="none" fill-rule="evenodd">
        <g id="Group-13" transform="translate(6.703177, 10.834718)">
            <path d="M5.01951937,5.68434189e-14 L17.2045845,5.68434189e-14 L17.2045845,5.68434189e-14 L17.2045845,5.01951937 L0,5.01951937 C-3.39497076e-16,2.24731537 2.24731537,5.82408429e-14 5.01951937,5.68434189e-14 Z" id="Rectangle" fill="#92B5D8" transform="translate(8.602292, 2.509760) rotate(-180.000000) translate(-8.602292, -2.509760) "></path>
            <rect id="Rectangle" stroke="#402B91" stroke-width="2" x="0" y="5.68434189e-14" width="35.9732222" height="28.3193451" rx="1"></rect>
            <line x1="0" y1="4.65456428" x2="35.9732222" y2="4.65456428" id="Path-6" stroke="#402B91" stroke-width="2"></line>
            <path d="M31.1492326,13.3683353 C31.0370209,13.2393219 30.8756461,13.1654683 30.7061421,13.1655537 L16.3210634,13.1655537 C14.984095,10.8139582 12.2584502,9.66745716 9.67562577,10.3702514 C7.09280131,11.0730457 5.29682319,13.4498939 5.29682319,16.1652825 C5.29682319,18.880671 7.09280131,21.2575192 9.67562577,21.9603135 C12.2584502,22.6631078 14.984095,21.5166068 16.3210634,19.1650113 L18.6015022,19.1650113 L20.3502324,20.274311 C20.5480672,20.3994075 20.7998352,20.3947077 20.9930089,20.2623121 L22.5958147,19.1650113 L23.3278002,19.1650113 L25.0765304,20.274311 C25.2743652,20.3994075 25.5261332,20.3947077 25.7193069,20.2623121 L27.3221128,19.1650113 L30.1153549,19.1650113 C30.413247,19.1649259 30.6644772,18.9396342 30.7014158,18.6394588 L31.2922031,13.8398927 C31.3133459,13.6691593 31.2612784,13.4974258 31.1492326,13.3683353 L31.1492326,13.3683353 Z M9.29682319,18.1652825 C8.19225369,18.1652825 7.29682319,17.269852 7.29682319,16.1652825 C7.29682319,15.060713 8.19225369,14.1652825 9.29682319,14.1652825 C10.4013927,14.1652825 11.2968232,15.060713 11.2968232,16.1652825 C11.2968232,17.269852 10.4013927,18.1652825 9.29682319,18.1652825 Z" id="Shape" fill="#94D1BE" fill-rule="nonzero"></path>
        </g>
    </g>
</svg>