<?xml version="1.0" encoding="UTF-8"?>
<svg width="50px" height="50px" viewBox="0 0 50 50" version="1.1" xmlns="http://www.w3.org/2000/svg" xmlns:xlink="http://www.w3.org/1999/xlink">
    <title>Tutorial Icons/Manage Keys Darkmode</title>
    <g id="Tutorial-Icons/Manage-Keys-Darkmode" stroke="none" stroke-width="1" fill="none" fill-rule="evenodd">
        <g id="Group-13" transform="translate(6.703177, 10.834718)">
            <path d="M5.01951937,5.27880133e-14 L17.2045845,5.27880133e-14 L17.2045845,5.27880133e-14 L17.2045845,5.01951937 L0,5.01951937 C-3.39497076e-16,2.24731537 2.24731537,5.41854373e-14 5.01951937,5.27880133e-14 Z" id="Rectangle" fill="#A3ACB9" transform="translate(8.602292, 2.509760) rotate(-180.000000) translate(-8.602292, -2.509760) "></path>
            <path d="M1,3.05614814e-14 L27.7953583,3.05614814e-14 L27.7953583,3.05614814e-14 L34.9732222,3.05614814e-14 C35.5255069,3.42732252e-14 35.9732222,0.44771525 35.9732222,1 L35.9732222,27.3193451 C35.9732222,27.8716299 35.5255069,28.3193451 34.9732222,28.3193451 L1,28.3193451 C0.44771525,28.3193451 6.76353751e-17,27.8716299 0,27.3193451 L0,1 C-6.76353751e-17,0.44771525 0.44771525,3.06629344e-14 1,3.05614814e-14 Z" id="Rectangle" stroke="#A3ACB9" stroke-width="2"></path>
            <line x1="0" y1="4.65456428" x2="35.9732222" y2="4.65456428" id="Path-6" stroke="#A3ACB9" stroke-width="2"></line>
        </g>
        <path d="M37.8524094,24.2030529 C37.7401977,24.0740395 37.5788229,24.0001858 37.4093189,24.0002712 L23.0242402,24.0002712 C21.6872719,21.6486757 18.961627,20.5021747 16.3788026,21.204969 C13.7959781,21.9077632 12,24.2846114 12,27 C12,29.7153886 13.7959781,32.0922368 16.3788026,32.795031 C18.961627,33.4978253 21.6872719,32.3513243 23.0242402,29.9997288 L25.304679,29.9997288 L27.0534092,31.1090285 C27.251244,31.2341251 27.503012,31.2294252 27.6961857,31.0970296 L29.2989916,29.9997288 L30.030977,29.9997288 L31.7797072,31.1090285 C31.977542,31.2341251 32.22931,31.2294252 32.4224838,31.0970296 L34.0252896,29.9997288 L36.8185317,29.9997288 C37.1164238,29.9996434 37.367654,29.7743517 37.4045926,29.4741763 L37.9953799,24.6746102 C38.0165227,24.5038768 37.9644552,24.3321434 37.8524094,24.2030529 L37.8524094,24.2030529 Z M16,29 C14.8954305,29 14,28.1045695 14,27 C14,25.8954305 14.8954305,25 16,25 C17.1045695,25 18,25.8954305 18,27 C18,28.1045695 17.1045695,29 16,29 Z" id="Shape" fill="#EEEFF0" fill-rule="nonzero"></path>
    </g>
</svg>