<?xml version="1.0" encoding="UTF-8"?>
<svg width="50px" height="50px" viewBox="0 0 50 50" version="1.1" xmlns="http://www.w3.org/2000/svg" xmlns:xlink="http://www.w3.org/1999/xlink">
    <title>Tutorial Icons/Get Started/My First Client Darkmode</title>
    <g id="Tutorial-Icons/Get-Started/My-First-Client-Darkmode" stroke="none" stroke-width="1" fill="none" fill-rule="evenodd">
        <g id="circle-08" transform="translate(6.500000, 6.500000)">
            <circle id="Oval" stroke="#A5AEBF" stroke-width="2" cx="18.5" cy="18.5" r="18.5"></circle>
            <path d="M10.4565217,13.237348 C10.4565217,8.79505557 14.0577076,5.19386971 18.5,5.19386971 C22.9422924,5.19386971 26.5434783,8.79505557 26.5434783,13.237348 L26.5434783,20.47125 C26.5434783,22.2510549 25.1017067,23.6938697 23.3267068,23.6938697 L13.6732932,23.6938697 C11.8967224,23.6938697 10.4565217,22.2509106 10.4565217,20.47125 L10.4565217,13.237348 Z" id="Path" stroke="#A5AEBF" stroke-width="2"></path>
            <path d="M13.1327057,31.4245239 C9.02938657,30.6751347 11.6026507,25.8634352 11.6026507,25.8634352 L7.79486883,27.4721308 C6.59414008,28.0724951 5.63043478,29.6316064 5.63043478,30.9605182 L5.63043478,31.7833743 C8.96054474,35.0103879 10.6211245,37 15.6243899,37 C20.6276553,37 17.2360248,32.173913 13.1327057,31.4245239 Z" id="Path" fill="#A5AEBF"></path>
            <path d="M29.2051312,27.4721308 L22.5217391,24.1304348 C22.5217391,24.1304348 20.9130435,25.7391304 18.5,25.7391304 C16.0869565,25.7391304 14.4782609,24.1304348 14.4782609,24.1304348 L7.79486883,27.4721308 C6.59414008,28.0724951 5.63043478,29.6316064 5.63043478,30.9605182 L5.63043478,31.7833743 C8.96054474,35.0103879 13.4967346,37 18.5,37 C23.5032654,37 28.0394553,35.0103879 31.3695652,31.7833743 L31.3695652,30.9605182 C31.3695652,29.633521 30.4005088,28.069795 29.2051312,27.4721308 Z" id="Path" stroke="#A5AEBF" stroke-width="2"></path>
            <path d="M12.0652174,14.4804259 L12.0652174,15.6503914 C12.0652174,19.1982971 14.9520944,22.0851741 18.5,22.0851741 C22.0479056,22.0851741 24.9347826,19.1982971 24.9347826,15.6503914 L24.9347826,14.4804259 C24.9347826,13.5112038 24.1490719,12.7254839 23.1798405,12.7254839 C21.1423945,12.7254839 19.3752664,11.56814 18.5,9.87499589 C17.6247335,11.56814 15.8576055,12.7254839 13.8201595,12.7254839 C12.8509281,12.7254839 12.0652174,13.5112038 12.0652174,14.4804259 Z" id="Path" stroke="#EEEFF0" stroke-width="2"></path>
        </g>
    </g>
</svg>