<?xml version="1.0" encoding="UTF-8"?>
<svg width="50px" height="50px" viewBox="0 0 50 50" version="1.1" xmlns="http://www.w3.org/2000/svg" xmlns:xlink="http://www.w3.org/1999/xlink">
    <title>Tutorial Icons/Get Started/My First Transaction</title>
    <g id="Tutorial-Icons/Get-Started/My-First-Transaction" stroke="none" stroke-width="1" fill="none" fill-rule="evenodd">
        <g id="money-transfer" transform="translate(4.000000, 11.000000)">
            <path d="M11.6568282,22.75 L6.125,22.75 L6.125,20.125 C6.12512628,19.7885245 5.93230172,19.4817834 5.62903414,19.3360284 C5.32576656,19.1902733 4.96578609,19.2313278 4.703125,19.441625 L0.328125,22.941625 C0.116656094,23.1118739 -0.00442328553,23.3701766 -6.54517076e-13,23.641625 C0.00342276087,23.8078069 0.0541084805,23.9695763 0.146125,24.108 C0.172007376,24.1469686 0.201288305,24.1835698 0.233625,24.217375 C0.267661201,24.2543588 0.304842314,24.2883195 0.34475,24.318875 L4.704,27.8075 C4.96654998,28.0171577 5.32596282,28.0579619 5.62883003,27.9124961 C5.93169724,27.7670303 6.12452171,27.460989 6.125,27.125 L6.125,24.5 L11.6568282,24.5 C12.1400773,24.5 12.5318282,24.1082492 12.5318282,23.625 C12.5318282,23.1417508 12.1400773,22.75 11.6568282,22.75 Z" id="Path" fill="#8AB5DC"></path>
            <path d="M41.125,22.75 L29.2482425,22.75 L29.2482425,24.5 L41.125,24.5 C41.6082492,24.5 42,24.1082492 42,23.625 C42,23.1417508 41.6082492,22.75 41.125,22.75 Z" id="Path" fill="#8AB5DC"></path>
            <path d="M12.5318282,3.5 L0.875,3.5 C0.391750844,3.5 0,3.89175084 0,4.375 C0,4.85824916 0.391750844,5.25 0.875,5.25 L12.5318282,5.25 L12.5318282,3.5 Z" id="Path" fill="#8ECFBA"></path>
            <path d="M41.979875,4.1895 C41.9374202,3.99309977 41.8286626,3.8172956 41.671875,3.691625 L37.296875,0.191625 C37.0342139,-0.0186722148 36.6742334,-0.0597267047 36.3709659,0.0860283612 C36.0676983,0.231783427 35.8748737,0.538524518 35.875,0.875 L35.875,3.5 L30.1232425,3.5 C29.6399934,3.5 29.2482425,3.89175084 29.2482425,4.375 C29.2482425,4.85824916 29.6399934,5.25 30.1232425,5.25 L35.875,5.25 L35.875,7.875 C35.8745368,8.21163344 36.0672337,8.51868247 36.370571,8.66465772 C36.6739083,8.81063296 37.0340906,8.76964642 37.296875,8.55925 L41.656125,5.075 C41.8690543,4.9124157 41.9957679,4.66124558 42,4.393375 C42.0012979,4.32486308 41.9945433,4.25643586 41.979875,4.1895 Z" id="Path" fill="#8ECFBA"></path>
            <circle id="Oval" stroke="#402B91" stroke-width="2" cx="21" cy="14" r="13.125"></circle>
            <g id="Logo-Icon-White" transform="translate(15.750000, 8.750000)" fill="#402B91">
                <path d="M9.77599592,1.85414186 C10.0378671,1.55023788 10.2748958,1.20390626 10.5,0.796247433 L9.27510869,0.164911415 C9.07776595,0.499414721 8.86203975,0.779597801 8.63367492,0.998003678 C8.29056872,1.32617498 7.92892379,1.5173886 7.5588324,1.56630895 C6.84575903,1.660614 6.34574128,1.43234049 5.61773135,0.948794054 C4.8530787,0.440948159 3.9862612,-0.134621236 2.75624612,0.0280823031 C2.00963535,0.126855116 1.3259072,0.531106876 0.724004081,1.22965212 C0.46225712,1.53345968 0.225197409,1.87979129 0,2.28754655 L1.22486026,2.91885042 C1.42214089,2.5841864 1.63768077,2.30381047 1.86582823,2.0851796 C2.20343803,1.76163677 2.56511401,1.57238381 2.94079496,1.52265992 C3.04867359,1.50842095 3.15164582,1.50138182 3.25110904,1.50138182 C3.81444415,1.50138182 4.26716795,1.72644112 4.88229971,2.13499992 C5.59683258,2.6095787 6.48588413,3.20015848 7.74421968,3.03379073 C8.50461805,2.93321796 9.18819093,2.53632675 9.77599592,1.85414186 L9.77599592,1.85414186 Z M9.77599592,5.64577589 C10.037836,5.34193719 10.2748647,4.99560672 10.5,4.5879171 L9.27510869,3.95658317 C9.07776595,4.29108537 8.86203975,4.57123538 8.63367492,4.78964054 C8.29056872,5.11781076 7.92892379,5.30902375 7.5588324,5.35800821 C6.84575903,5.45218439 6.34574128,5.22400805 5.61773135,4.74043107 C4.85310975,4.23258686 3.98644752,3.65711579 2.75624612,3.81972237 C2.00963535,3.91849485 1.3259072,4.32277742 0.724004081,5.02132035 C0.46225712,5.32509477 0.225228462,5.67142524 0,6.07917914 L1.22486026,6.71051308 C1.42214089,6.37585016 1.63768077,6.09547516 1.86582823,5.87684501 C2.20343803,5.5532711 2.56514506,5.36401877 2.94079496,5.31429504 C3.04867359,5.30005612 3.15161476,5.29301701 3.25110904,5.29301701 C3.8144131,5.29301701 4.2671369,5.51807557 4.88229971,5.92666517 C5.59686363,6.40124238 6.48622571,6.99191663 7.74421968,6.82542087 C8.50461805,6.72481628 9.18819093,6.32795853 9.77599592,5.64577589 L9.77599592,5.64577589 Z M9.77599592,9.29162648 C10.0378671,8.98772337 10.2748958,8.64139276 10.5,8.23376725 L9.27510869,7.60243306 C9.07776595,7.9369354 8.86203975,8.21711767 8.63367492,8.43549077 C8.29056872,8.76366113 7.92892379,8.9548742 7.5588324,9.00382654 C6.84575903,9.09819561 6.34574128,8.86985847 5.61773135,8.38628129 C4.85310975,7.87846901 3.98644752,7.30290128 2.75624612,7.4655722 C2.00963535,7.56434473 1.3259072,7.96862746 0.724004081,8.66717069 C0.462226067,8.97097736 0.225197409,9.31730798 0,9.72502991 L1.22486026,10.3563641 C1.42214089,10.0216689 1.63768077,9.74129379 1.86582823,9.52269569 C2.20343803,9.19912165 2.56511401,9.00986925 2.94079496,8.96014549 C3.04867359,8.94590656 3.15161476,8.93886745 3.25110904,8.93886745 C3.8144131,8.93886745 4.2671369,9.1639261 4.88229971,9.57248373 C5.59686363,10.0470933 6.48622571,10.6377035 7.74421968,10.4712719 C8.50461805,10.3706673 9.18819093,9.97377725 9.77599592,9.29162648 L9.77599592,9.29162648 Z" id="Fill-1"></path>
            </g>
        </g>
    </g>
</svg>