<?xml version="1.0" encoding="UTF-8"?>
<svg width="50px" height="50px" viewBox="0 0 50 50" version="1.1" xmlns="http://www.w3.org/2000/svg" xmlns:xlink="http://www.w3.org/1999/xlink">
    <title>Tutorial Icons/Libra Reference Wallet/Set up for development Darkmode</title>
    <g id="Tutorial-Icons/Libra-Reference-Wallet/Set-up-for-development-Darkmode" stroke="none" stroke-width="1" fill="none" fill-rule="evenodd">
        <g id="Group-13" transform="translate(6.351351, 10.000000)">
            <path d="M5.20427404,5.47309945e-14 L17.8378378,5.47309945e-14 L17.8378378,5.47309945e-14 L17.8378378,5.20427404 L0,5.20427404 C-3.51993027e-16,2.33003285 2.33003285,5.43708056e-14 5.20427404,5.47309945e-14 Z" id="Rectangle" fill="#A3ACB9" transform="translate(8.918919, 2.602137) rotate(-180.000000) translate(-8.918919, -2.602137) "></path>
            <rect id="Rectangle" stroke="#A3ACB9" stroke-width="2" x="0" y="3.16863652e-14" width="37.2972973" height="29.3617021" rx="1"></rect>
            <line x1="0" y1="4.82588595" x2="37.2972973" y2="4.82588595" id="Path-6" stroke="#A3ACB9" stroke-width="2"></line>
        </g>
        <g id="settings-gear" transform="translate(17.851351, 19.225369)" fill="#EEEFF0">
            <path d="M8.92218881,1.42108547e-14 L9.21181678,2.31633748 C9.96658327,2.55796797 10.6599337,2.96049058 11.2440169,3.49612537 L11.2440169,3.49612537 L13.4011276,2.58606211 L14.773772,4.96348227 L12.9110935,6.37387442 C12.996188,6.75999535 13.039447,7.1541585 13.0401221,7.54954438 C13.039447,7.94493025 12.996188,8.3390934 12.9110935,8.72521433 L12.9110935,8.72521433 L14.773772,10.1356065 L13.4011276,12.5130266 L11.2440169,11.6029634 C10.6599337,12.1385982 9.96658327,12.5411208 9.21181678,12.7827513 L9.21181678,12.7827513 L8.92218881,15.0990888 L6.17689994,15.0990888 L5.88727197,12.7827513 C5.13250548,12.5411208 4.43915503,12.1385982 3.85507189,11.6029634 L3.85507189,11.6029634 L1.69796116,12.5130266 L0.32531673,10.1356065 L2.18799522,8.72521433 C2.0160759,7.95086183 2.0160759,7.14822692 2.18799522,6.37387442 L2.18799522,6.37387442 L0.32531673,4.96348227 L1.69796116,2.58606211 L3.85507189,3.49612537 C4.43915503,2.96049058 5.13250548,2.55796797 5.88727197,2.31633748 L5.88727197,2.31633748 L6.17689994,1.42108547e-14 L8.92218881,1.42108547e-14 Z M7.54954438,5.14741662 C6.22288585,5.14741662 5.14741662,6.22288585 5.14741662,7.54954438 C5.14741662,8.8762029 6.22288585,9.95167213 7.54954438,9.95167213 C8.8762029,9.95167213 9.95167213,8.8762029 9.95167213,7.54954438 C9.95167213,6.22288585 8.8762029,5.14741662 7.54954438,5.14741662 Z" id="Combined-Shape"></path>
        </g>
    </g>
</svg>