<?xml version="1.0" encoding="UTF-8"?>
<svg width="50px" height="50px" viewBox="0 0 50 50" version="1.1" xmlns="http://www.w3.org/2000/svg" xmlns:xlink="http://www.w3.org/1999/xlink">
    <title>Tutorial Icons/Libra Reference Merchant/Use Payment Management Darkmode</title>
    <g id="Tutorial-Icons/Libra-Reference-Merchant/Use-Payment-Management-Darkmode" stroke="none" stroke-width="1" fill="none" fill-rule="evenodd">
        <g id="loan" transform="translate(9.500000, 10.000000)">
            <path d="M29.7960545,17.5392932 L29.8207008,17.5817397 C30.3536158,18.488668 30.150703,19.64817 29.3414664,20.3202218 L23.7844016,24.9071793 C23.4520084,25.1820616 23.0589099,25.3737998 22.6376623,25.4665143 L12.0945062,27.8092857 C11.3658544,27.9710318 10.6027526,27.828352 9.98176724,27.4142596 C6.93520601,24.674111 5.53137369,23.8384175 5.77027027,24.9071793 C14.2878713,24.8895213 19.913021,23.9824099 22.6457195,22.1858451 C26.7447672,19.4909979 29.2192534,16.5450531 29.7960545,17.5392932 Z" id="Path" fill="#A3ACB9"></path>
            <path d="M23.9617183,18.4847542 L26.9500869,16.7732028 C27.9480483,16.2028644 29.2192534,16.5450531 29.7960545,17.5392932 L29.8207008,17.5817397 C30.3536158,18.488668 30.150703,19.64817 29.3414664,20.3202218 L23.7844016,24.9071793 C23.4520084,25.1820616 23.0589099,25.3737998 22.6376623,25.4665143 L12.0945062,27.8092857 C11.3658544,27.9710318 10.6027526,27.828352 9.98176724,27.4142596 L3.42857958,23.0525423 C2.97871265,22.7525721 2.4501121,22.5924912 1.90940664,22.5924773 L0,22.5924773 L0,14.377031 L4.86080572,13.8368654 C5.71644229,13.7416987 6.58246031,13.8498337 7.3884247,14.1524755 L11.1298759,15.5552629 C11.4684545,15.6825047 11.8188931,15.7756187 12.175976,15.8332189 L19.1755363,16.9690043 C20.3293725,17.0522765 21.2230068,18.0125375 21.2232362,19.1693747 L21.2232362,19.1693747 C21.2229809,20.3264571 20.3289583,21.2868142 19.1748516,21.369745 L11.6385489,21.9078568" id="Path" stroke="#A3ACB9" stroke-width="2" stroke-linecap="round" stroke-linejoin="round"></path>
            <circle id="Oval" stroke="#A3ACB9" stroke-width="2" fill="#EEEFF0" stroke-linecap="round" stroke-linejoin="round" cx="18.4847542" cy="6.16158472" r="6.16158472"></circle>
            <polygon id="Rectangle" fill="#A3ACB9" transform="translate(18.485497, 6.161711) rotate(-45.000000) translate(-18.485497, -6.161711) " points="16.5490479 4.22526203 20.4219462 4.22526203 20.4219462 8.09816033 16.5490479 8.09816033"></polygon>
        </g>
    </g>
</svg>