<?xml version="1.0" encoding="UTF-8"?>
<svg width="50px" height="50px" viewBox="0 0 50 50" version="1.1" xmlns="http://www.w3.org/2000/svg" xmlns:xlink="http://www.w3.org/1999/xlink">
    <title>Tutorial Icons/Libra Reference Wallet/Use the Admin Dashboard</title>
    <g id="Tutorial-Icons/Libra-Reference-Wallet/Use-the-Admin-Dashboard" stroke="none" stroke-width="1" fill="none" fill-rule="evenodd">
        <g id="Group-13" transform="translate(6.351351, 10.000000)">
            <path d="M5.20427404,5.47309945e-14 L17.8378378,5.47309945e-14 L17.8378378,5.47309945e-14 L17.8378378,5.20427404 L0,5.20427404 C-3.51993027e-16,2.33003285 2.33003285,5.43708056e-14 5.20427404,5.47309945e-14 Z" id="Rectangle" fill="#92B5D8" transform="translate(8.918919, 2.602137) rotate(-180.000000) translate(-8.918919, -2.602137) "></path>
            <rect id="Rectangle" stroke="#402B91" stroke-width="2" x="0" y="3.16863652e-14" width="37.2972973" height="29.3617021" rx="1"></rect>
            <line x1="0" y1="4.82588595" x2="37.2972973" y2="4.82588595" id="Path-6" stroke="#402B91" stroke-width="2"></line>
        </g>
        <g id="single-02" transform="translate(17.842105, 18.500000)" stroke="#402B91" stroke-linecap="round" stroke-linejoin="round" stroke-width="2">
            <path d="M9.27272727,10.8181818 L4.63636364,10.8181818 C2.07593182,10.8181818 0,12.8941136 0,15.4545455 L0,16.2272727 C0,16.2272727 2.41477273,17 6.95454545,17 C11.4943182,17 13.9090909,16.2272727 13.9090909,16.2272727 L13.9090909,15.4545455 C13.9090909,12.8941136 11.8331591,10.8181818 9.27272727,10.8181818 Z" id="Path"></path>
            <path d="M3.09090909,3.86363636 C3.09090909,1.72975 4.82065909,0 6.95454545,0 C9.08843182,0 10.8181818,1.72975 10.8181818,3.86363636 C10.8181818,5.99752273 9.08843182,8.5 6.95454545,8.5 C4.82065909,8.5 3.09090909,5.99752273 3.09090909,3.86363636 Z" id="Path"></path>
        </g>
    </g>
</svg>